# xmcd
#
# Track frame offsets:
#	150
#	16069
#	30415
#	44681
#	58586
#	77498
#	92428
#	107272
#	123775
#	138507
#	153220
#	167461
#	181079
#	195903
#	209814
#	225132
#	241348
#
# Disc length: 3403 seconds
#
# Revision: 0
# Processed by: cddbd v1.5.2PL0 Copyright (c) Steve Scherf et al.
# Submitted via: dBpowerAMP V4.0
#
DISCID=bc0d4911
DTITLE=Various Artist - ERG Nu Country Traxx Vol. 249 CAN
DYEAR=2015
DGENRE=Country
TTITLE0=Carrie Underwood - Little Toy Guns
TTITLE1=Kenny Chesney with Grace Potter - Wild Child
TTITLE2=Wes Mack - Before You Drive Me Crazy
TTITLE3=Parmalee - Already Callin' You Mine
TTITLE4=Road Hammers, The - Hillbilly Highway
TTITLE5=Kira Isabella - Shake It If Ya Got It
TTITLE6=Brooklyhn Woods - When You Love A Wild Thing
TTITLE7=Aaron Pritchett - Wake You With A Kiss
TTITLE8=Craig Wayne Boyd  - My Baby's Got A Smile On Her Face
TTITLE9=Mo Pitney - Country
TTITLE10=Montgomery Gentry - Folks Like Us
TTITLE11=Michael Ray - Kiss You In The Morning
TTITLE12=David Fanning - Doin' Country Right
TTITLE13=Genevieve Fisher - Stilettos
TTITLE14=David James - What We Weren't Looking For
TTITLE15=Jim Ed Brown - When The Sun Says Hello To The Mountain
TTITLE16=Orchard, The - Gone Missin'
EXTD=
EXTT0=
EXTT1=
EXTT2=
EXTT3=
EXTT4=
EXTT5=
EXTT6=
EXTT7=
EXTT8=
EXTT9=
EXTT10=
EXTT11=
EXTT12=
EXTT13=
EXTT14=
EXTT15=
EXTT16=
PLAYORDER=
